<svg width="165" height="290" viewBox="0 0 165 290" fill="none" xmlns="http://www.w3.org/2000/svg">
<style>
      @keyframes wave {
        0% { transform: rotate(0); }
        20% { transform: rotate(-20deg); }
        40% { transform: rotate(0); }
        100% { transform: rotate(0); }
      }@keyframes wave2 {
        0% { transform: rotate(0); }
        20% { transform: rotate(-40deg); }
        40% { transform: rotate(0); }
        100% { transform: rotate(0); }
      }

      #hand1 {
        transform-origin: center; 
        animation: wave 2s ease-in-out infinite;
      }

      #hand2 {
        transform-origin: 150px 170px; 
        animation: wave2 2s ease-in-out infinite;
      }
    </style>
<g id="Property 1=Default">
<path id="hand1" d="M19.401 163.2C42.401 169.5 47.901 167.7 52.001 173.9C52.501 174.6 54.901 178.2 54.401 182.9C54.001 186.6 52.001 189.5 50.701 190.7C42.801 198.3 21.101 189 8.70099 178.8C6.00099 176.6 -1.29901 170.6 0.200988 166.4C0.800988 164.7 2.70099 163.8 4.00099 163.2C9.80099 160.5 16.001 162.2 19.401 163.2Z" fill="url(#paint0_linear_103_193)"/>
<path id="Vector" d="M90.5008 8.5H85.6008V40.6H90.5008V8.5Z" fill="url(#paint1_linear_103_193)"/>
<path id="Vector_2" d="M105.001 58.4H71.2009C68.7009 58.4 66.7009 56.4 66.7009 53.9V41.8C66.7009 39.3 68.7009 37.3 71.2009 37.3H105.001C107.501 37.3 109.501 39.3 109.501 41.8V53.9C109.501 56.4 107.501 58.4 105.001 58.4Z" fill="url(#paint2_linear_103_193)"/>
<path id="Vector_3" d="M164.801 128.6C164.801 148.1 149.001 164 129.401 164H46.701C27.301 164 11.301 148.1 11.301 128.6V110.2C11.301 75.6001 39.601 47.3 74.201 47.3H101.801C136.401 47.3 164.701 75.6001 164.701 110.2V128.6H164.801Z" fill="url(#paint3_linear_103_193)"/>
<path id="Vector_4" d="M140.601 125.3C138.601 126.3 136.301 126.8 134.101 126.8H42.001C39.701 126.8 37.501 126.3 35.501 125.3C30.601 122.9 27.801 117.9 28.501 112.9L28.601 112.5C31.001 95.3999 46.401 82.2999 65.401 81.2999C73.401 80.8999 81.901 80.7 90.701 80.7C97.601 80.7 104.201 80.8999 110.701 81.2999C129.801 82.2999 145.401 95.3999 147.701 112.5C147.701 112.6 147.701 112.7 147.801 112.9C148.301 117.9 145.601 122.9 140.601 125.3Z" fill="url(#paint4_linear_103_193)"/>
<g id="Group">
<path id="Vector_5" d="M63.8011 123.1C73.4109 123.1 81.2011 115.31 81.2011 105.7C81.2011 96.0903 73.4109 88.3 63.8011 88.3C54.1914 88.3 46.4011 96.0903 46.4011 105.7C46.4011 115.31 54.1914 123.1 63.8011 123.1Z" fill="url(#paint5_radial_103_193)"/>
<g id="Group_2">
<path id="Vector_6" d="M63.801 118.2C70.7046 118.2 76.301 112.604 76.301 105.7C76.301 98.7965 70.7046 93.2001 63.801 93.2001C56.8975 93.2001 51.301 98.7965 51.301 105.7C51.301 112.604 56.8975 118.2 63.801 118.2Z" fill="#EEFDFF"/>
</g>
<g id="Group_3">
<path id="Vector_7" d="M63.801 116.2C69.6 116.2 74.301 111.499 74.301 105.7C74.301 99.9011 69.6 95.2001 63.801 95.2001C58.002 95.2001 53.301 99.9011 53.301 105.7C53.301 111.499 58.002 116.2 63.801 116.2Z" fill="url(#paint6_linear_103_193)"/>
</g>
<g id="Group_4">
<path id="Vector_8" d="M70.5012 103C70.5012 105.1 68.8012 106.9 66.6012 106.9C64.5012 106.9 62.7012 105.2 62.7012 103C62.7012 100.8 64.4012 99.1 66.6012 99.1C68.8012 99.1 70.5012 100.8 70.5012 103Z" fill="#EEFDFF"/>
</g>
<g id="Group_5">
<path id="Vector_9" d="M62.301 115.2C63.1295 115.2 63.801 114.529 63.801 113.7C63.801 112.872 63.1295 112.2 62.301 112.2C61.4726 112.2 60.801 112.872 60.801 113.7C60.801 114.529 61.4726 115.2 62.301 115.2Z" fill="#EEFDFF"/>
</g>
<g id="Group_6">
<path id="Vector_10" d="M58.401 111.4C58.401 111.8 58.101 112.2 57.601 112.2C57.201 112.2 56.801 111.9 56.801 111.4C56.801 111 57.101 110.6 57.601 110.6C58.101 110.6 58.401 111 58.401 111.4Z" fill="#EEFDFF"/>
</g>
</g>
<g id="Group_7">
<path id="Vector_11" d="M110.701 123.1C120.311 123.1 128.101 115.31 128.101 105.7C128.101 96.0903 120.311 88.3 110.701 88.3C101.091 88.3 93.301 96.0903 93.301 105.7C93.301 115.31 101.091 123.1 110.701 123.1Z" fill="url(#paint7_radial_103_193)"/>
<g id="Group_8">
<path id="Vector_12" d="M110.701 118.2C117.604 118.2 123.201 112.604 123.201 105.7C123.201 98.7965 117.604 93.2001 110.701 93.2001C103.797 93.2001 98.2009 98.7965 98.2009 105.7C98.2009 112.604 103.797 118.2 110.701 118.2Z" fill="#EEFDFF"/>
</g>
<g id="Group_9">
<path id="Vector_13" d="M110.701 116.2C116.5 116.2 121.201 111.499 121.201 105.7C121.201 99.9011 116.5 95.2001 110.701 95.2001C104.902 95.2001 100.201 99.9011 100.201 105.7C100.201 111.499 104.902 116.2 110.701 116.2Z" fill="url(#paint8_linear_103_193)"/>
</g>
<g id="Group_10">
<path id="Vector_14" d="M117.401 103C117.401 105.1 115.701 106.9 113.501 106.9C111.401 106.9 109.601 105.2 109.601 103C109.601 100.8 111.301 99.1 113.501 99.1C115.701 99.1 117.401 100.8 117.401 103Z" fill="#EEFDFF"/>
</g>
<g id="Group_11">
<path id="Vector_15" d="M109.101 115.2C109.93 115.2 110.601 114.529 110.601 113.7C110.601 112.872 109.93 112.2 109.101 112.2C108.273 112.2 107.601 112.872 107.601 113.7C107.601 114.529 108.273 115.2 109.101 115.2Z" fill="#EEFDFF"/>
</g>
<g id="Group_12">
<path id="Vector_16" d="M105.301 111.4C105.301 111.8 105.001 112.2 104.501 112.2C104.001 112.2 103.701 111.9 103.701 111.4C103.701 111 104.001 110.6 104.501 110.6C105.001 110.6 105.301 111 105.301 111.4Z" fill="#EEFDFF"/>
</g>
</g>
<path id="Vector_17" d="M94.3009 6.3C94.3009 9.8 91.5009 12.6 88.0009 12.6C84.5009 12.6 81.7009 9.8 81.7009 6.3C81.7009 2.8 84.5009 0 88.0009 0C91.5009 0.1 94.3009 2.9 94.3009 6.3Z" fill="url(#paint9_linear_103_193)"/>
<path id="Vector_18" d="M92.4008 3.9C92.4008 5 91.5008 5.8 90.5008 5.8C89.4008 5.8 88.6008 4.9 88.6008 3.9C88.6008 2.8 89.5008 2 90.5008 2C91.6008 2 92.4008 2.8 92.4008 3.9Z" fill="white"/>
<path id="Vector_19" d="M142.101 67.5C142.201 70.4 139.801 73.9 137.101 74.2C134.501 74.5 132.501 71.9 130.401 69.2C128.301 66.5 123.801 59.7 125.601 57.7C127.901 55.2 141.901 60.6 142.101 67.5Z" fill="white"/>
<path id="Vector_20" d="M118.601 56.3C119.816 56.3 120.801 55.3151 120.801 54.1C120.801 52.885 119.816 51.9 118.601 51.9C117.386 51.9 116.401 52.885 116.401 54.1C116.401 55.3151 117.386 56.3 118.601 56.3Z" fill="white"/>
<path id="Vector_21" d="M141.801 108.1C141.101 108.6 136.201 98.7 123.101 90C118.501 87 114.001 84.8 114.201 84.2C114.501 83.6 119.601 84.7 123.701 86.6C136.801 92.8 142.601 107.5 141.801 108.1Z" fill="white"/>
<path id="Vector_22" d="M108.301 43.5C108.101 43.5 108.001 42.6 107.301 41.2C107.301 41.2 106.901 40.5 106.501 40C105.201 38.2 100.701 38.2 100.401 38.2C93.501 38.3 89.001 37.8 89.001 37.9C89.001 37.9 92.301 37.9 94.601 37.8C101.301 37.7 105.301 37.3 107.101 39.1C107.801 39.8 108.201 40.8 108.201 40.8C108.601 42.1 108.401 43.5 108.301 43.5Z" fill="white"/>
<path id="Vector_23" d="M106.801 134.3C106.601 136 105.201 137.2 103.601 137.4L80.601 139.6C78.901 139.8 77.301 138.8 76.801 137.2C76.601 136.5 76.401 135.8 76.301 135C76.301 134.8 76.301 134.6 76.501 134.4C76.601 134.2 76.801 134.1 77.001 134.1L106.001 131.3C106.201 131.3 106.401 131.3 106.601 131.5C106.801 131.6 106.901 131.8 106.901 132C106.901 132.8 106.901 133.5 106.801 134.3Z" fill="#EEFDFF"/>
<path id="Vector_24" d="M106.801 134.3C106.101 141.4 100.401 147.3 93.0011 148C85.7011 148.7 79.1011 144.2 76.9011 137.5C77.5011 138.9 79.0011 139.8 80.6011 139.6L103.601 137.4C105.301 137.2 106.601 135.9 106.801 134.3Z" fill="url(#paint10_linear_103_193)"/>
<path id="Vector_25" d="M143.001 185.9C143.001 186.1 143.001 186.3 143.001 186.5C142.901 188.4 142.501 189.9 142.301 190.5C136.001 209.8 132.201 220 126.901 228.3C126.001 229.7 125.001 231.1 124.001 232.4C122.601 234.2 121.201 235.9 119.501 237.7C115.801 241.7 110.301 243.5 108.501 244.1C102.001 246.4 96.201 246 92.301 246H91.601C87.701 246 82.001 246.4 75.401 244.1C73.601 243.5 68.001 241.7 64.401 237.7C54.301 226.7 50.401 217.6 41.501 190.5C41.301 189.9 40.901 188.5 40.801 186.7C40.801 186.2 40.801 185.7 40.801 185.1C41.001 181.9 42.301 178.7 44.601 175.8C48.601 170.8 54.801 168.1 61.201 168.1L92.001 168L122.201 167.9C128.701 167.9 135.001 170.6 139.201 175.7C141.201 178.1 142.501 180.8 142.901 183.5C143.001 183.9 143.001 184.3 143.101 184.7C143.001 185 143.001 185.5 143.001 185.9Z" fill="url(#paint11_linear_103_193)"/>
<path id="Vector_26" d="M91.9009 168L61.1009 168.1C54.7009 168.1 48.5009 170.9 44.5009 175.8C42.2009 178.7 40.9009 181.9 40.7009 185.1C40.9009 181.8 42.2009 178.5 44.7009 175.5C48.8009 170.5 55.2009 167.7 61.7009 167.7L91.9009 168Z" fill="url(#paint12_linear_103_193)"/>
<g id="hand2">
<path id="Vector_27" d="M126.307 215.31C125.907 191.41 122.607 186.71 127.407 181.01C127.907 180.31 130.707 177.01 135.307 176.21C139.007 175.51 142.307 176.71 143.907 177.61C153.407 183.01 150.607 206.51 144.307 221.31C142.907 224.51 139.207 233.21 134.807 233.01C133.007 232.91 131.607 231.41 130.707 230.31C126.407 225.31 126.307 218.91 126.307 215.31Z" fill="url(#paint13_linear_103_193)"/>
<path id="Vector_28" d="M130.607 230.31C129.707 231.71 128.707 233.11 127.707 234.41C127.407 234.11 127.107 233.71 126.807 233.41C122.607 228.51 122.507 222.11 122.507 218.51C122.007 194.61 118.807 189.91 123.607 184.21C123.907 183.81 125.207 182.31 127.307 181.01C122.607 186.71 125.807 191.41 126.307 215.21C126.307 218.91 126.407 225.31 130.607 230.31Z" fill="url(#paint14_linear_103_193)"/>
<path id="Vector_29" d="M144.107 195.51C144.007 192.91 143.507 191.11 142.507 187.31C141.207 182.41 139.707 180.01 140.707 179.01C141.407 178.41 142.707 178.81 143.007 178.91C147.507 180.31 148.907 188.81 148.707 194.11C148.607 197.31 147.807 201.01 146.607 201.11C146.407 201.11 145.907 201.11 145.607 200.81C144.307 199.61 144.207 197.41 144.107 195.51Z" fill="white"/>
<path id="Vector_30" d="M147.207 204.51C147.207 205.01 146.807 205.41 146.307 205.41C145.807 205.41 145.407 205.01 145.407 204.51C145.407 204.01 145.807 203.61 146.307 203.61C146.807 203.61 147.207 204.01 147.207 204.51Z" fill="white"/>
</g>
<path id="Vector_31" d="M90.5011 289.3C117.618 289.3 139.601 280.301 139.601 269.2C139.601 258.099 117.618 249.1 90.5011 249.1C63.3839 249.1 41.4011 258.099 41.4011 269.2C41.4011 280.301 63.3839 289.3 90.5011 289.3Z" fill="url(#paint15_radial_103_193)"/>
</g>
<defs>
<linearGradient id="paint0_linear_103_193" x1="32.5443" y1="177.691" x2="121.788" y2="247.05" gradientUnits="userSpaceOnUse">
<stop offset="0.0396825" stop-color="#1E88E5"/>
<stop offset="1" stop-color="#054F31"/>
</linearGradient>
<linearGradient id="paint1_linear_103_193" x1="78.0763" y1="26.003" x2="92.7727" y2="23.8598" gradientUnits="userSpaceOnUse">
<stop offset="0.0396825" stop-color="#5AAEF9"/>
      <stop offset="1" stop-color="#054F31"/>
</linearGradient>
<linearGradient id="paint2_linear_103_193" x1="74.3279" y1="63.3205" x2="100.409" y2="33.8745" gradientUnits="userSpaceOnUse">
<stop offset="0.0396825" stop-color="#3280FC"/>
      <stop offset="1" stop-color="#054F31"/>
</linearGradient>
<linearGradient id="paint3_linear_103_193" x1="36.5523" y1="165.316" x2="139.901" y2="61.9674" gradientUnits="userSpaceOnUse">
<stop offset="0.35" stop-color="#3280FC"/>
      <stop offset="1" stop-color="#054F31"/>
</linearGradient>
<linearGradient id="paint4_linear_103_193" x1="87.7887" y1="126.66" x2="88.7071" y2="85.3266" gradientUnits="userSpaceOnUse">
<stop stop-color="#030D14"/>
<stop offset="1" stop-color="#0B2F45"/>
</linearGradient>
<radialGradient id="paint5_radial_103_193" cx="0" cy="0" r="1" gradientUnits="userSpaceOnUse" gradientTransform="translate(63.7995 105.683) scale(17.1784 17.1784)">
<stop offset="0.1296" stop-color="#3280FC"/>
<stop offset="1"/>
</radialGradient>
<linearGradient id="paint6_linear_103_193" x1="53.335" y1="105.683" x2="74.2638" y2="105.683" gradientUnits="userSpaceOnUse">
<stop stop-color="#030D14"/>
<stop offset="1" stop-color="#0B2F45"/>
</linearGradient>
<radialGradient id="paint7_radial_103_193" cx="0" cy="0" r="1" gradientUnits="userSpaceOnUse" gradientTransform="translate(110.692 105.683) scale(17.1784 17.1784)">
<stop offset="0.1296" stop-color="#3280FC"/>
<stop offset="1"/>
</radialGradient>
<linearGradient id="paint8_linear_103_193" x1="100.227" y1="105.683" x2="121.156" y2="105.683" gradientUnits="userSpaceOnUse">
<stop stop-color="#030D14"/>
<stop offset="1" stop-color="#0B2F45"/>
</linearGradient>
<linearGradient id="paint9_linear_103_193" x1="74.8476" y1="8.2565" x2="94.2969" y2="5.4201" gradientUnits="userSpaceOnUse">
<stop offset="0.0396825" stop-color="#3280FC"/>
      <stop offset="1" stop-color="#054F31"/>
</linearGradient>
<linearGradient id="paint10_linear_103_193" x1="87.4325" y1="142.714" x2="117.355" y2="112.791" gradientUnits="userSpaceOnUse">
      <stop stop-color="#054F31"/>
<stop offset="1" stop-color="#3280FC"/>
</linearGradient>
<linearGradient id="paint11_linear_103_193" x1="59.1714" y1="233.518" x2="138.452" y2="140.939" gradientUnits="userSpaceOnUse">
<stop offset="0.0396825" stop-color="#3280FC"/>
<stop offset="0.0407546" stop-color="#1E88E5"/>
<stop offset="0.1607" stop-color="#5AAEF9"/>
<stop offset="0.2745" stop-color="#6CBAFF"/>
      <stop offset="0.451667" stop-color="#08B972FF"/>
      <stop offset="0.596667" stop-color="#0CB270FF"/>
      <stop offset="0.8004" stop-color="#036D43FF"/>
      <stop offset="1" stop-color="#054F31"/>
</linearGradient>
<linearGradient id="paint12_linear_103_193" x1="54.9716" y1="187.364" x2="102.648" y2="131.69" gradientUnits="userSpaceOnUse">
      <stop offset="0.0396825" stop-color="#17E794FF"/>
<stop offset="1" stop-color="#DEFA8E"/>
</linearGradient>
<linearGradient id="paint13_linear_103_193" x1="161.218" y1="221.704" x2="101.858" y2="178.29" gradientUnits="userSpaceOnUse">
      <stop stop-color="#0BA165FF"/>
      <stop offset="0.176667" stop-color="#0AA567FF"/>
      <stop offset="0.441667" stop-color="#0D8C59FF"/>
      <stop offset="0.686667" stop-color="#0E6C46FF"/>
      <stop offset="1" stop-color="#054F31"/>
</linearGradient>
<linearGradient id="paint14_linear_103_193" x1="108.906" y1="217.494" x2="150.975" y2="195.571" gradientUnits="userSpaceOnUse">
<stop offset="0.0396825" stop-color="#5AAEF9"/>
<stop offset="1" stop-color="#054F31"/>
</linearGradient>
<radialGradient id="paint15_radial_103_193" cx="0" cy="0" r="1" gradientUnits="userSpaceOnUse" gradientTransform="translate(90.51 269.159) scale(49.0698 20.0886)">
<stop stop-color="#BCD7D6"/>
<stop offset="1" stop-color="white"/>
</radialGradient>
</defs>
</svg>
