<svg width="50" height="38" viewBox="0 0 50 38" fill="none" xmlns="http://www.w3.org/2000/svg">
<path d="M50 26.473C50 32.8226 44.8534 38 38.4691 38H11.5309C5.21172 38 0 32.8226 0 26.473V20.4816C0 9.21508 9.21824 0 20.4886 0H29.4788C40.7492 0 49.9674 9.21508 49.9674 20.4816V26.473H50Z" fill="url(#paint0_linear_107_419)"/>
<path d="M42.1172 25.3984C41.4657 25.724 40.7165 25.8868 39.9999 25.8868H9.99994C9.25075 25.8868 8.53414 25.724 7.88267 25.3984C6.28658 24.6169 5.37453 22.9888 5.60254 21.3607L5.63512 21.2304C6.41688 15.6623 11.4332 11.3967 17.6221 11.071C20.228 10.9408 22.9967 10.8757 25.8631 10.8757C28.1107 10.8757 30.2605 10.9408 32.3778 11.071C38.5993 11.3967 43.6807 15.6623 44.4299 21.2304C44.4299 21.263 44.4299 21.2956 44.4625 21.3607C44.6253 22.9888 43.7459 24.6169 42.1172 25.3984Z" fill="url(#paint1_linear_107_419)"/>
<path d="M17.1009 24.6821C20.2311 24.6821 22.7687 22.1454 22.7687 19.0163C22.7687 15.8871 20.2311 13.3505 17.1009 13.3505C13.9707 13.3505 11.4332 15.8871 11.4332 19.0163C11.4332 22.1454 13.9707 24.6821 17.1009 24.6821Z" fill="url(#paint2_radial_107_419)"/>
<path d="M17.1009 23.0866C19.3496 23.0866 21.1726 21.2643 21.1726 19.0163C21.1726 16.7684 19.3496 14.946 17.1009 14.946C14.8522 14.946 13.0292 16.7684 13.0292 19.0163C13.0292 21.2643 14.8522 23.0866 17.1009 23.0866Z" fill="#EEFDFF"/>
<path d="M17.1009 22.4353C18.9898 22.4353 20.5211 20.9046 20.5211 19.0163C20.5211 17.128 18.9898 15.5973 17.1009 15.5973C15.212 15.5973 13.6807 17.128 13.6807 19.0163C13.6807 20.9046 15.212 22.4353 17.1009 22.4353Z" fill="url(#paint3_linear_107_419)"/>
<path d="M19.2833 18.1371C19.2833 18.8209 18.7296 19.407 18.013 19.407C17.3289 19.407 16.7426 18.8535 16.7426 18.1371C16.7426 17.4207 17.2964 16.8672 18.013 16.8672C18.7296 16.8672 19.2833 17.4207 19.2833 18.1371Z" fill="#EEFDFF"/>
<path d="M16.6123 22.1097C16.8822 22.1097 17.1009 21.891 17.1009 21.6212C17.1009 21.3515 16.8822 21.1328 16.6123 21.1328C16.3425 21.1328 16.1237 21.3515 16.1237 21.6212C16.1237 21.891 16.3425 22.1097 16.6123 22.1097Z" fill="#EEFDFF"/>
<path d="M15.342 20.8723C15.342 21.0026 15.2443 21.1328 15.0814 21.1328C14.9511 21.1328 14.8208 21.0351 14.8208 20.8723C14.8208 20.7421 14.9185 20.6118 15.0814 20.6118C15.2443 20.6118 15.342 20.7421 15.342 20.8723Z" fill="#EEFDFF"/>
<path d="M32.3778 24.6821C35.508 24.6821 38.0455 22.1454 38.0455 19.0163C38.0455 15.8871 35.508 13.3505 32.3778 13.3505C29.2476 13.3505 26.71 15.8871 26.71 19.0163C26.71 22.1454 29.2476 24.6821 32.3778 24.6821Z" fill="url(#paint4_radial_107_419)"/>
<path d="M32.3778 23.0866C34.6265 23.0866 36.4494 21.2643 36.4494 19.0163C36.4494 16.7684 34.6265 14.946 32.3778 14.946C30.129 14.946 28.3061 16.7684 28.3061 19.0163C28.3061 21.2643 30.129 23.0866 32.3778 23.0866Z" fill="#EEFDFF"/>
<path d="M32.3778 22.4353C34.2667 22.4353 35.798 20.9046 35.798 19.0163C35.798 17.128 34.2667 15.5973 32.3778 15.5973C30.4889 15.5973 28.9576 17.128 28.9576 19.0163C28.9576 20.9046 30.4889 22.4353 32.3778 22.4353Z" fill="url(#paint5_linear_107_419)"/>
<path d="M34.5602 18.1371C34.5602 18.8209 34.0065 19.407 33.2898 19.407C32.6058 19.407 32.0195 18.8535 32.0195 18.1371C32.0195 17.4207 32.5732 16.8672 33.2898 16.8672C34.0065 16.8672 34.5602 17.4207 34.5602 18.1371Z" fill="#EEFDFF"/>
<path d="M31.8566 22.1097C32.1264 22.1097 32.3452 21.891 32.3452 21.6212C32.3452 21.3515 32.1264 21.1328 31.8566 21.1328C31.5867 21.1328 31.368 21.3515 31.368 21.6212C31.368 21.891 31.5867 22.1097 31.8566 22.1097Z" fill="#EEFDFF"/>
<path d="M30.6188 20.8723C30.6188 21.0026 30.5211 21.1328 30.3582 21.1328C30.1954 21.1328 30.0977 21.0351 30.0977 20.8723C30.0977 20.7421 30.1954 20.6118 30.3582 20.6118C30.5211 20.6118 30.6188 20.7421 30.6188 20.8723Z" fill="#EEFDFF"/>
<path d="M42.6059 6.57755C42.6384 7.52185 41.8567 8.66152 40.9772 8.75921C40.1303 8.8569 39.4788 8.01028 38.7948 7.13111C38.1108 6.25193 36.6449 4.0377 37.2313 3.38646C37.9805 2.57241 42.5407 4.33076 42.6059 6.57755Z" fill="white"/>
<path d="M34.9511 2.9306C35.3469 2.9306 35.6677 2.60987 35.6677 2.21423C35.6677 1.81859 35.3469 1.49786 34.9511 1.49786C34.5553 1.49786 34.2345 1.81859 34.2345 2.21423C34.2345 2.60987 34.5553 2.9306 34.9511 2.9306Z" fill="white"/>
<path d="M42.5081 19.7978C42.2801 19.9606 40.684 16.7369 36.4169 13.904C34.9186 12.9272 33.4528 12.2108 33.5179 12.0154C33.6156 11.8201 35.2769 12.1782 36.6124 12.7969C40.8795 14.8158 42.7687 19.6024 42.5081 19.7978Z" fill="white"/>
<path d="M31.1075 28.329C31.0423 28.8826 30.5863 29.2733 30.0651 29.3385L22.5733 30.0548C22.0195 30.12 21.4983 29.7943 21.3355 29.2733C21.2703 29.0454 21.2052 28.8175 21.1726 28.557C21.1726 28.4919 21.1726 28.4267 21.2378 28.3616C21.2703 28.2965 21.3355 28.2639 21.4006 28.2639L30.8469 27.3522C30.912 27.3522 30.9772 27.3522 31.0423 27.4173C31.1075 27.4499 31.14 27.515 31.14 27.5801C31.14 27.8406 31.14 28.0685 31.1075 28.329Z" fill="#EEFDFF"/>
<path d="M31.1075 28.329C30.8794 30.6409 29.0228 32.5621 26.6123 32.79C24.2345 33.0179 22.0847 31.5526 21.368 29.371C21.5635 29.8268 22.0521 30.1199 22.5733 30.0548L30.0651 29.3384C30.6189 29.2733 31.0423 28.85 31.1075 28.329Z" fill="url(#paint6_linear_107_419)"/>
<defs>
<linearGradient id="paint0_linear_107_419" x1="8.22518" y1="38.4285" x2="41.8776" y2="4.76448" gradientUnits="userSpaceOnUse">
            <stop offset="0.35" stop-color="#32D583"/>
            <stop offset="1" stop-color="#027A48"/>
</linearGradient>
<linearGradient id="paint1_linear_107_419" x1="24.9145" y1="25.8413" x2="25.2134" y2="12.3822" gradientUnits="userSpaceOnUse">
<stop stop-color="#030D14"/>
<stop offset="1" stop-color="#0B2F45"/>
</linearGradient>
<radialGradient id="paint2_radial_107_419" cx="0" cy="0" r="1" gradientUnits="userSpaceOnUse" gradientTransform="translate(17.1004 19.0107) scale(5.59557 5.59365)">
<stop offset="0.1296" stop-color="#027A48"/>
<stop offset="1"/>
</radialGradient>
<linearGradient id="paint3_linear_107_419" x1="13.6918" y1="19.0108" x2="20.509" y2="19.0108" gradientUnits="userSpaceOnUse">
<stop stop-color="#030D14"/>
<stop offset="1" stop-color="#0B2F45"/>
</linearGradient>
<radialGradient id="paint4_radial_107_419" cx="0" cy="0" r="1" gradientUnits="userSpaceOnUse" gradientTransform="translate(32.3747 19.0107) scale(5.59557 5.59365)">
<stop offset="0.1296" stop-color="#027A48"/>
<stop offset="1"/>
</radialGradient>
<linearGradient id="paint5_linear_107_419" x1="28.9661" y1="19.0108" x2="35.7833" y2="19.0108" gradientUnits="userSpaceOnUse">
<stop stop-color="#030D14"/>
<stop offset="1" stop-color="#0B2F45"/>
</linearGradient>
<linearGradient id="paint6_linear_107_419" x1="24.7985" y1="31.0689" x2="34.542" y2="21.322" gradientUnits="userSpaceOnUse">
            <stop stop-color="#32D583"/>
<stop offset="1" stop-color="#027A48"/>
</linearGradient>
</defs>
</svg>
