<svg width="13" height="13" viewBox="0 0 13 13" fill="none" xmlns="http://www.w3.org/2000/svg">
<path d="M1.70704 11.7193C1.51844 11.9014 1.26584 12.0022 1.00364 12C0.741443 11.9977 0.490631 11.8925 0.305223 11.7071C0.119815 11.5217 0.0146453 11.2709 0.0123669 11.0087C0.0100885 10.7465 0.110883 10.4939 0.293041 10.3053L4.29304 6.30529C4.38529 6.20978 4.49563 6.1336 4.61764 6.08119C4.73964 6.02878 4.87086 6.00119 5.00364 6.00004C5.13642 5.99888 5.2681 6.02419 5.391 6.07447C5.51389 6.12475 5.62554 6.199 5.71944 6.29289C5.81333 6.38679 5.88758 6.49844 5.93786 6.62133C5.98814 6.74423 6.01345 6.87591 6.01229 7.00869C6.01114 7.14147 5.98355 7.27269 5.93114 7.39469C5.87873 7.5167 5.80255 7.62704 5.70704 7.71929L1.70704 11.7193Z" fill="#131313"/>
<path d="M1 12.0123C0.734784 12.0123 0.48043 11.9069 0.292893 11.7194C0.105357 11.5319 0 11.2775 0 11.0123C0 10.7471 0.105357 10.4927 0.292893 10.3052C0.48043 10.1177 0.734784 10.0123 1 10.0123H5C5.26522 10.0123 5.51957 10.1177 5.70711 10.3052C5.89464 10.4927 6 10.7471 6 11.0123C6 11.2775 5.89464 11.5319 5.70711 11.7194C5.51957 11.9069 5.26522 12.0123 5 12.0123H1Z" fill="#131313"/>
<path d="M2 11.0123C2 11.2775 1.89464 11.5319 1.70711 11.7194C1.51957 11.9069 1.26522 12.0123 1 12.0123C0.734784 12.0123 0.48043 11.9069 0.292893 11.7194C0.105357 11.5319 0 11.2775 0 11.0123V7.01229C0 6.74707 0.105357 6.49272 0.292893 6.30518C0.48043 6.11765 0.734784 6.01229 1 6.01229C1.26522 6.01229 1.51957 6.11765 1.70711 6.30518C1.89464 6.49272 2 6.74707 2 7.01229V11.0123ZM7.707 5.71929C7.5184 5.90145 7.2658 6.00224 7.0036 5.99996C6.7414 5.99768 6.49059 5.89251 6.30518 5.70711C6.11977 5.5217 6.0146 5.27089 6.01233 5.00869C6.01005 4.74649 6.11084 4.49389 6.293 4.30529L10.293 0.305288C10.3852 0.209778 10.4956 0.133596 10.6176 0.0811869C10.7396 0.0287779 10.8708 0.00119157 11.0036 3.77571e-05C11.1364 -0.00111606 11.2681 0.0241854 11.391 0.0744663C11.5139 0.124747 11.6255 0.199 11.7194 0.292893C11.8133 0.386786 11.8875 0.498438 11.9378 0.621334C11.9881 0.74423 12.0134 0.87591 12.0123 1.00869C12.0111 1.14147 11.9835 1.27269 11.9311 1.39469C11.8787 1.5167 11.8025 1.62704 11.707 1.71929L7.707 5.71929Z" fill="#131313"/>
<path d="M12 5.0123C12 5.27752 11.8946 5.53187 11.7071 5.71941C11.5196 5.90694 11.2652 6.0123 11 6.0123C10.7348 6.0123 10.4804 5.90694 10.2929 5.71941C10.1054 5.53187 10 5.27752 10 5.0123V1.0123C10 0.747082 10.1054 0.492728 10.2929 0.305192C10.4804 0.117656 10.7348 0.0122986 11 0.0122986C11.2652 0.0122986 11.5196 0.117656 11.7071 0.305192C11.8946 0.492728 12 0.747082 12 1.0123V5.0123Z" fill="#131313"/>
<path d="M7 2.0123C6.73478 2.0123 6.48043 1.90694 6.29289 1.71941C6.10536 1.53187 6 1.27752 6 1.0123C6 0.747082 6.10536 0.492728 6.29289 0.305192C6.48043 0.117656 6.73478 0.0122986 7 0.0122986H11C11.2652 0.0122986 11.5196 0.117656 11.7071 0.305192C11.8946 0.492728 12 0.747082 12 1.0123C12 1.27752 11.8946 1.53187 11.7071 1.71941C11.5196 1.90694 11.2652 2.0123 11 2.0123H7Z" fill="#131313"/>
</svg>
