<svg width="24" height="25" viewBox="0 0 24 25" fill="none" xmlns="http://www.w3.org/2000/svg">
<g id="mingcute:mic-fill">
<g id="Group">
<path id="Vector" d="M19.07 12.51C19.2002 12.5284 19.3255 12.5723 19.4387 12.6392C19.5519 12.706 19.6508 12.7946 19.7298 12.8997C19.8087 13.0049 19.8662 13.1245 19.8988 13.2519C19.9314 13.3793 19.9386 13.5118 19.92 13.642C19.6693 15.376 18.8567 16.9799 17.6066 18.2075C16.3566 19.4352 14.7383 20.2187 13 20.438V21.5C13 21.7652 12.8946 22.0196 12.7071 22.2071C12.5196 22.3946 12.2652 22.5 12 22.5C11.7348 22.5 11.4804 22.3946 11.2929 22.2071C11.1054 22.0196 11 21.7652 11 21.5V20.438C9.26197 20.2184 7.64397 19.4347 6.39417 18.2071C5.14436 16.9795 4.33176 15.3758 4.081 13.642C4.04334 13.3794 4.11152 13.1127 4.27055 12.9004C4.42958 12.6881 4.66643 12.5477 4.929 12.51C5.19156 12.4723 5.45833 12.5405 5.67062 12.6996C5.88292 12.8586 6.02334 13.0954 6.061 13.358C6.26782 14.7856 6.98194 16.0909 8.07261 17.035C9.16328 17.979 10.5575 18.4986 12 18.4986C13.4425 18.4986 14.8367 17.979 15.9274 17.035C17.0181 16.0909 17.7322 14.7856 17.939 13.358C17.9576 13.228 18.0017 13.1029 18.0687 12.9899C18.1356 12.8769 18.2242 12.7783 18.3293 12.6995C18.4345 12.6208 18.5541 12.5635 18.6813 12.531C18.8086 12.4985 18.94 12.4913 19.07 12.51ZM12 2.5C13.3261 2.5 14.5978 3.02678 15.5355 3.96447C16.4732 4.90215 17 6.17392 17 7.5V12.5C17 13.8261 16.4732 15.0979 15.5355 16.0355C14.5978 16.9732 13.3261 17.5 12 17.5C10.6739 17.5 9.40215 16.9732 8.46446 16.0355C7.52678 15.0979 7 13.8261 7 12.5V7.5C7 6.17392 7.52678 4.90215 8.46446 3.96447C9.40215 3.02678 10.6739 2.5 12 2.5Z" fill="#DEDEDE"/>
</g>
</g>
</svg>
