<svg width="61" height="52" viewBox="0 0 61 52" fill="none" xmlns="http://www.w3.org/2000/svg">
<path d="M15.8247 41.2165H45.1753C48.7196 41.2165 50.5 39.4534 50.5 35.9606V15.2559C50.5 11.7631 48.7196 10 45.1753 10H15.8247C12.2978 10.0007 10.5 11.7472 10.5 15.2559V35.9613C10.5 39.4708 12.2978 41.2165 15.8247 41.2165ZM15.8753 38.4876C14.1795 38.4876 13.2303 37.5891 13.2303 35.8253V15.3934C13.2303 13.6296 14.1795 12.7311 15.8753 12.7311H23.421V38.4876H15.8753ZM45.1247 12.7311C46.8031 12.7311 47.7697 13.6296 47.7697 15.3934V35.8238C47.7697 37.5876 46.8031 38.4862 45.1247 38.4862H26.0833V12.7303L45.1247 12.7311ZM20.1654 19.0222C20.674 19.0222 21.1319 18.5643 21.1319 18.0723C21.1319 17.5638 20.674 17.1232 20.1654 17.1232H16.5192C16.0113 17.1232 15.57 17.5638 15.57 18.0723C15.57 18.5643 16.0113 19.0222 16.5199 19.0222H20.1654ZM20.1654 23.4136C20.674 23.4136 21.1319 22.9557 21.1319 22.4471C21.1319 21.9385 20.674 21.5138 20.1654 21.5138H16.5192C16.0113 21.5138 15.57 21.9385 15.57 22.4471C15.57 22.9557 16.0113 23.4136 16.5199 23.4136H20.1654ZM20.1654 27.7884C20.674 27.7884 21.1319 27.3644 21.1319 26.8551C21.1319 26.3473 20.674 25.906 20.1654 25.906H16.5192C16.0113 25.906 15.57 26.3473 15.57 26.8559C15.57 27.3644 16.0113 27.7884 16.5199 27.7884H20.1654Z" fill="#1E1E1E"/>
</svg>
